# xmcd CD database file
#
# Track frame offsets:
#	150
#	7012
#	30429
#	51029
#	73835
#	93083
#	107733
#	129133
#	161288
#	184231
#	201987
#	246625
#	277200
#	307612
#
# Disc length: 4395 seconds
#
# Revision: 0
# Processed by: cddbd v1.5.1PL0 Copyright (c) Steve Scherf et al.
# Submitted via: CDex 1.50
#
DISCID=bb11290e
DTITLE=Tom Woll - Live@Walhalla
DYEAR=2004
DGENRE=Blues
TTITLE0=Introduction
TTITLE1=Baby dont gimme that blues
TTITLE2=Little by Little
TTITLE3=Satisfy Suzie
TTITLE4=Love me like a man
TTITLE5=Smokin man
TTITLE6=Love another woman
TTITLE7=Sweet Company
TTITLE8=Hounddog
TTITLE9=Hi Heel Sneakers
TTITLE10=Tin Pan Alley
TTITLE11=Jayquilla
TTITLE12=I d rather go blind
TTITLE13=Harley Song
EXTD=YEAR: 2004
EXTT0=
EXTT1=
EXTT2=
EXTT3=
EXTT4=
EXTT5=
EXTT6=
EXTT7=
EXTT8=
EXTT9=
EXTT10=
EXTT11=
EXTT12=
EXTT13=
PLAYORDER=
